<svg width="24" height="24" viewBox="0 0 24 24" fill="none" xmlns="http://www.w3.org/2000/svg">
<path d="M5.1979 3.3C5.7999 2 7.8669 2 11.9999 2C16.1329 2 18.1999 2 18.8019 3.3C18.8539 3.41067 18.8972 3.526 18.9319 3.646C19.3419 5.033 17.8799 6.641 14.9579 9.856L12.9999 12L14.9579 14.143C17.8799 17.359 19.3409 18.967 18.9319 20.353C18.8973 20.4721 18.8538 20.5884 18.8019 20.701C18.1999 22 16.1329 22 11.9999 22C7.8669 22 5.7999 22 5.1979 20.7C5.14609 20.588 5.10264 20.4724 5.0679 20.354C4.6579 18.967 6.1199 17.359 9.0419 14.144L10.9999 12L9.0419 9.857C6.1199 6.64 4.6599 5.033 5.0679 3.647C5.10257 3.527 5.1459 3.412 5.1979 3.3Z" fill="black"/>
</svg>
