<svg width="24" height="24" viewBox="0 0 24 24" fill="none" xmlns="http://www.w3.org/2000/svg">
<path d="M4.30578 3.44719C4.1093 3.41636 3.90816 3.43817 3.72286 3.5104C3.53755 3.58262 3.37471 3.70268 3.25091 3.85834C3.12712 4.014 3.0468 4.19969 3.01814 4.3965C2.98949 4.59331 3.01352 4.79419 3.08778 4.97869L5.08578 9.93619C5.19769 10.2137 5.39003 10.4514 5.63809 10.6187C5.88614 10.786 6.17857 10.8754 6.47778 10.8752H12.3758C12.6742 10.8752 12.9603 10.9937 13.1713 11.2047C13.3823 11.4157 13.5008 11.7018 13.5008 12.0002C13.5008 12.2986 13.3823 12.5847 13.1713 12.7957C12.9603 13.0067 12.6742 13.1252 12.3758 13.1252H6.47778C6.17882 13.1253 5.88672 13.2148 5.63896 13.3821C5.39121 13.5494 5.1991 13.7869 5.08728 14.0642L3.08778 19.0217C3.01326 19.2061 2.98898 19.407 3.01741 19.6039C3.04584 19.8008 3.12596 19.9866 3.24961 20.1424C3.37327 20.2983 3.53602 20.4185 3.7213 20.4909C3.90657 20.5634 4.10774 20.5854 4.30428 20.5547C10.7049 19.5582 16.7363 16.9141 21.8063 12.8822C21.939 12.7769 22.0463 12.6429 22.12 12.4903C22.1937 12.3377 22.232 12.1704 22.232 12.0009C22.232 11.8315 22.1937 11.6642 22.12 11.5116C22.0463 11.359 21.939 11.225 21.8063 11.1197C16.7363 7.08775 10.7064 4.4437 4.30578 3.44719Z" fill="white"/>
</svg>
